<?xml version="1.0" encoding="UTF-8"?>
<svg width="91px" height="116px" viewBox="0 0 91 116" version="1.1" xmlns="http://www.w3.org/2000/svg" xmlns:xlink="http://www.w3.org/1999/xlink">
    <title>Group 34</title>
    <g id="Page-1" stroke="none" stroke-width="1" fill="none" fill-rule="evenodd">
        <g id="main-[1920]" transform="translate(-330.000000, -984.000000)">
            <g id="Group-28" transform="translate(242.000000, 914.000000)">
                <g id="Group-32" transform="translate(0.000000, 70.000000)">
                    <g id="Group-34" transform="translate(88.000000, 0.000000)">
                        <text id="1" font-family="GothamPro-Bold, Gotham Pro" font-size="130" font-weight="bold" fill="#EAECEE">
                            <tspan x="17.57" y="95">1</tspan>
                        </text>
                        <g id="Group-15" transform="translate(0.000000, 12.000000)">
                            <g id="Group-7" transform="translate(35.248277, 28.514931)" fill="#46C0C0">
                                <path d="M43.472488,2.65616287 L1.32808144,2.65616287 C0.594582059,2.65616287 0,2.06158081 0,1.32808144 C0,0.594582059 0.594582059,0 1.32808144,0 L43.472488,0 C44.2058546,0 44.8005695,0.594582059 44.8005695,1.32808144 C44.8005695,2.06158081 44.2058546,2.65616287 43.472488,2.65616287" id="Fill-1"></path>
                                <path d="M43.472488,12.8086017 L1.32808144,12.8086017 C0.594582059,12.8086017 0,12.2138869 0,11.4805203 C0,10.7470209 0.594582059,10.1524388 1.32808144,10.1524388 L43.472488,10.1524388 C44.2058546,10.1524388 44.8005695,10.7470209 44.8005695,11.4805203 C44.8005695,12.2138869 44.2058546,12.8086017 43.472488,12.8086017" id="Fill-3"></path>
                                <path d="M43.472488,22.9610273 L1.32808144,22.9610273 C0.594582059,22.9610273 0,22.3663124 0,21.6329458 C0,20.8995793 0.594582059,20.3048644 1.32808144,20.3048644 L43.472488,20.3048644 C44.2058546,20.3048644 44.8005695,20.8995793 44.8005695,21.6329458 C44.8005695,22.3663124 44.2058546,22.9610273 43.472488,22.9610273" id="Fill-5"></path>
                            </g>
                            <g id="Group-14" transform="translate(0.000000, 0.000000)">
                                <g id="Group-10" transform="translate(24.633308, 16.900062)" fill="#46C0C0">
                                    <path d="M7.72452005,2.65616287 C4.92983829,2.65616287 2.65616287,4.92983829 2.65616287,7.72452005 L2.65616287,39.5306095 C2.65616287,42.3251585 4.92983829,44.5987011 7.72452005,44.5987011 L43.1773884,44.5987011 C44.3739897,44.5987011 45.4859923,45.1373709 46.2279914,46.0763245 L57.0608861,59.7908903 L57.0608861,45.9249232 C57.0608861,45.1980643 57.6451091,44.6061384 58.3719681,44.5969746 C61.1302604,44.5616476 63.3743196,42.2890347 63.3743196,39.5306095 L63.3743196,7.72452005 C63.3743196,4.92983829 61.100777,2.65616287 58.3060952,2.65616287 L7.72452005,2.65616287 Z M57.3915783,63.099938 C56.7024369,63.099938 56.0438413,62.7885029 55.592692,62.2175607 L44.1437004,47.7230127 C43.9087628,47.4256552 43.5564228,47.254864 43.1773884,47.254864 L7.72452005,47.254864 C3.46523008,47.254864 0,43.7898995 0,39.5306095 L0,7.72452005 C0,3.46523008 3.46523008,0 7.72452005,0 L58.3060952,0 C62.5652524,0 66.0304825,3.46523008 66.0304825,7.72452005 L66.0304825,39.5306095 C66.0304825,43.2878847 63.2987518,46.4541637 59.7170489,47.1232511 L59.7170489,60.7852248 C59.7170489,61.7836765 59.1075924,62.6404218 58.1642561,62.9680595 C57.9086004,63.0569081 57.6480309,63.099938 57.3915783,63.099938 L57.3915783,63.099938 Z" id="Fill-8"></path>
                                </g>
                                <g id="Group-13" fill="#646A75">
                                    <path d="M7.69344295,55.2744837 C7.45120089,55.2744837 7.2051074,55.2337116 6.96339658,55.1499097 C6.07198832,54.8403339 5.4959994,54.0306026 5.4959994,53.0870008 L5.4959994,41.3352066 C2.36757077,40.6827202 0,37.8898977 0,34.584303 L0,6.89619566 C0,3.0936329 3.0937657,0 6.89632847,0 L50.9288685,0 C54.731564,0 57.8251969,3.0936329 57.8251969,6.89619566 L57.8251969,12.0194026 C57.8251969,12.752902 57.2304821,13.347484 56.4971155,13.347484 C55.7636161,13.347484 55.1690341,12.752902 55.1690341,12.0194026 L55.1690341,6.89619566 C55.1690341,4.5582411 53.266823,2.65616287 50.9288685,2.65616287 L6.89632847,2.65616287 C4.55837391,2.65616287 2.65616287,4.5582411 2.65616287,6.89619566 L2.65616287,34.584303 C2.65616287,36.8921102 4.53353879,38.7933915 6.84094747,38.8226093 C7.56780644,38.8317731 8.15216227,39.4235662 8.15216227,40.150558 L8.15216227,51.7265142 L17.2754177,40.1763227 C17.8441022,39.4563698 18.657552,38.9888851 19.5659597,38.8597956 C20.2921547,38.7571349 20.9644295,39.2618059 21.0676214,39.987868 C21.1706805,40.7141957 20.6656112,41.3864705 19.9394162,41.4895297 C19.7095253,41.5222005 19.5038055,41.6405325 19.3598415,41.8226125 L9.39325438,54.4405814 C8.96707304,54.9801809 8.34473408,55.2744837 7.69344295,55.2744837" id="Fill-11"></path>
                                </g>
                            </g>
                        </g>
                    </g>
                </g>
            </g>
        </g>
    </g>
</svg>