<?xml version="1.0" encoding="UTF-8"?>
<svg width="89px" height="116px" viewBox="0 0 89 116" version="1.1" xmlns="http://www.w3.org/2000/svg" xmlns:xlink="http://www.w3.org/1999/xlink">
    <title>Group 35</title>
    <defs>
        <polygon id="path-1" points="0 0 88.6877792 0 88.6877792 80 0 80"></polygon>
    </defs>
    <g id="Page-1" stroke="none" stroke-width="1" fill="none" fill-rule="evenodd">
        <g id="main-[1920]" transform="translate(-619.000000, -984.000000)">
            <g id="Group-28" transform="translate(242.000000, 914.000000)">
                <g id="Group-32-Copy" transform="translate(288.000000, 70.000000)">
                    <g id="Group-35" transform="translate(89.000000, 0.000000)">
                        <text id="2" font-family="GothamPro-Bold, Gotham Pro" font-size="130" font-weight="bold" fill="#EAECEE">
                            <tspan x="5.505" y="95">2</tspan>
                        </text>
                        <g id="Group-12" transform="translate(0.000000, 12.000000)">
                            <g id="Group-3">
                                <mask id="mask-2" fill="white">
                                    <use xlink:href="#path-1"></use>
                                </mask>
                                <g id="Clip-2"></g>
                                <path d="M79.5786244,2.1719457 C75.7845973,2.1719457 72.5791674,5.38443439 72.5791674,9.18696833 L72.5791674,20.9954751 L86.5158965,20.9954751 L86.5158965,9.17628959 C86.5337376,5.3480543 83.4414299,2.20977376 79.6224253,2.1719457 L79.5786244,2.1719457 Z M2.1719276,68.0591855 C2.1719276,73.4457919 6.51147511,77.8280543 11.8452308,77.8280543 L53.554733,77.8280543 L53.1398914,77.2539367 C52.9442353,76.9833484 52.7507511,76.8253394 52.5802534,76.6857919 C52.4953665,76.6166516 52.4153665,76.5511312 52.3409774,76.4761991 C50.1234208,74.2524887 48.8579005,71.1764706 48.8687602,68.0363801 L48.8687602,62.081448 L2.1719276,62.081448 L2.1719276,68.0591855 Z M21.8043258,2.1719457 C18.1836923,2.1719457 15.2383529,5.07656109 15.2383529,8.64669683 L14.8629683,59.9095023 L49.954733,59.9095023 C50.5614299,59.9308597 51.0439638,60.4329412 51.0407059,61.0521267 L51.0407059,68.0358371 C51.0283982,73.3961991 55.3793484,77.7893213 60.7397104,77.8280543 L60.7721086,77.8280543 C66.0848688,77.8280543 70.4072217,73.4450679 70.4072217,68.0579186 L70.4072217,9.18968326 C70.4072217,6.89303167 71.3219729,4.6758371 73.0522896,2.77791855 L73.6048688,2.1719457 L21.8043258,2.1719457 Z M60.7395294,80 C60.6479457,80 60.55419,79.9844344 60.435276,79.9647059 C60.2931946,79.9409955 60.1321086,79.9140271 59.9243258,79.9057014 L59.5474932,79.8901357 L59.5474932,80 L11.5836923,80 L11.5836923,79.9323077 L11.2385339,79.9161991 C5.04161086,79.6284163 -1.80995475e-05,74.3100452 -1.80995475e-05,68.0606335 L-1.80995475e-05,61.0541176 C-1.80995475e-05,60.4229864 0.47038914,59.9095023 1.04848869,59.9095023 L12.6910226,59.9095023 L13.0664072,8.63945701 C13.0664072,3.87457014 16.9862262,0 21.8043258,0 L79.6209774,0 C84.6280362,0.0360180995 88.6966335,4.14063348 88.6877792,9.15022624 L88.6877792,22.0065158 C88.6877792,22.6358371 88.2075837,23.1674208 87.6392579,23.1674208 L72.5791674,23.1674208 L72.5791674,68.0591855 C72.6135566,74.6050679 67.317448,79.960362 60.7739186,80 L60.7395294,80 Z" id="Fill-1" fill="#646A75" mask="url(#mask-2)"></path>
                            </g>
                            <path d="M31.6742081,17.0374299 L31.6742081,26.7011403 C31.6742081,29.0424977 33.160362,31.8908235 35.0575566,33.1856652 L41.8830769,37.871638 L48.7359276,33.1847602 C50.6371041,31.8888326 52.1266968,29.0406878 52.1266968,26.7011403 L52.1266968,17.0511855 L41.9006335,11.991638 L31.6742081,17.0374299 Z M41.9134842,40.272362 C41.6968326,40.272362 41.4881448,40.2073846 41.3098643,40.0844887 L33.8432579,34.9796923 C31.3683258,33.2920905 29.5022624,29.7331765 29.5022624,26.7011403 L29.5022624,16.3588778 C29.4901357,15.9443982 29.7151131,15.5650317 30.0754751,15.3811403 L41.4161086,9.8081086 C41.5632579,9.73498643 41.7263348,9.69661538 41.8892308,9.69661538 C42.0519457,9.69661538 42.2150226,9.73498643 42.360905,9.80738462 L53.7288688,15.3990588 C54.0847059,15.5805973 54.3102262,15.9603258 54.2988235,16.3641267 L54.2986425,26.7011403 C54.2986425,29.7344434 52.4340271,33.2939005 49.961448,34.9809593 L42.518009,40.0839457 C42.3388235,40.2073846 42.1301357,40.272362 41.9134842,40.272362 L41.9134842,40.272362 Z" id="Fill-4" fill="#46C0C0"></path>
                            <path d="M40.4765249,28.959276 C40.191095,28.9576471 39.910914,28.839095 39.710009,28.6338462 L36.792905,25.6870588 C36.3711855,25.2611765 36.3742624,24.5715837 36.7997828,24.1498643 C37.0044887,23.9467873 37.2761629,23.8349321 37.5644887,23.8349321 C37.8566154,23.8349321 38.1308235,23.9493213 38.3366154,24.1569231 L40.4837647,26.3247059 L45.472362,21.3370136 C45.6774299,21.1317647 45.95019,21.0188235 46.2405068,21.0188235 C46.5306425,21.0188235 46.8034027,21.1319457 47.0082896,21.3373756 C47.2139005,21.5428054 47.3268416,21.8157466 47.3266609,22.1060633 C47.3266609,22.3965611 47.2135385,22.6695023 47.0081086,22.8745701 L41.2477466,28.6369231 C41.0453937,28.840905 40.7655747,28.95819 40.4792398,28.959276 L40.4765249,28.959276 Z" id="Fill-6" fill="#46C0C0"></path>
                            <path d="M25.158371,47.0588235 C24.559457,47.0588235 24.0723982,46.5717647 24.0723982,45.9728507 C24.0723982,45.3739367 24.559457,44.8868778 25.158371,44.8868778 L59.9095023,44.8868778 C60.5084163,44.8868778 60.9954751,45.3739367 60.9954751,45.9728507 C60.9954751,46.5717647 60.5084163,47.0588235 59.9095023,47.0588235 L25.158371,47.0588235 Z" id="Fill-8" fill="#46C0C0"></path>
                            <path d="M25.158371,53.7556561 C24.559457,53.7556561 24.0723982,53.2685973 24.0723982,52.6696833 C24.0723982,52.0707692 24.559457,51.5837104 25.158371,51.5837104 L59.9095023,51.5837104 C60.5084163,51.5837104 60.9954751,52.0707692 60.9954751,52.6696833 C60.9954751,53.2685973 60.5084163,53.7556561 59.9095023,53.7556561 L25.158371,53.7556561 Z" id="Fill-10" fill="#46C0C0"></path>
                        </g>
                    </g>
                </g>
            </g>
        </g>
    </g>
</svg>