<?xml version="1.0" encoding="UTF-8"?>
<svg width="82px" height="116px" viewBox="0 0 82 116" version="1.1" xmlns="http://www.w3.org/2000/svg" xmlns:xlink="http://www.w3.org/1999/xlink">
    <title>Group 36</title>
    <g id="Page-1" stroke="none" stroke-width="1" fill="none" fill-rule="evenodd">
        <g id="main-[1920]" transform="translate(-914.000000, -984.000000)">
            <g id="Group-28" transform="translate(242.000000, 914.000000)">
                <g id="Group-32-Copy-2" transform="translate(576.000000, 70.000000)">
                    <g id="Group-36" transform="translate(96.000000, 0.000000)">
                        <text id="3" font-family="GothamPro-Bold, Gotham Pro" font-size="130" font-weight="bold" fill="#EAECEE">
                            <tspan x="0.635" y="95">3</tspan>
                        </text>
                        <g id="Group-3" transform="translate(0.999966, 12.000000)">
                            <path d="M40.0000008,16.209916 C33.4768075,21.6082353 25.4616814,24.8877311 17.0252108,25.6105882 C16.5445386,34.7858824 18.748068,42.4757983 22.3497486,48.5964706 C26.8843705,56.302521 33.6233621,61.532437 40.0000008,64.1109244 C46.3768075,61.532437 53.115631,56.3021849 57.6499167,48.5964706 C61.2514293,42.4759664 63.4549587,34.7858824 62.9744545,25.6105882 C54.538152,24.8877311 46.5233621,21.6080672 40.0000008,16.209916 L40.0000008,16.209916 Z M40.8915974,13.4497479 C40.3868915,13 39.6263873,12.9964706 39.1174797,13.4415126 C32.6114293,19.1463866 24.3865554,22.514958 15.7478999,23.0129412 C15.0492444,23.0189916 14.4719335,23.5598319 14.4201688,24.2566387 C13.6389923,34.534958 16.0297486,43.1391597 20.0386562,49.9519328 C25.0154629,58.409916 32.4973117,64.094958 39.5094125,66.7957983 C39.8200008,66.9188235 40.165547,66.9205042 40.4773117,66.8005042 C47.4927739,64.1015126 54.9803369,58.4147899 59.9600008,49.9519328 C63.9690764,43.1391597 66.3598327,34.534958 65.5788243,24.2566387 L65.5771436,24.2566387 C65.5268915,23.5847059 64.9858831,23.0541176 64.3129419,23.0171429 C55.6566394,22.5319328 47.4117655,19.1642017 40.8910932,13.4502521 L40.8915974,13.4497479 Z M40.0000008,29.6110924 C34.2623537,29.6110924 29.6112613,34.262521 29.6112613,40.0001681 C29.6112613,45.7378151 34.2626898,50.3889076 40.0003369,50.3889076 C45.7379839,50.3889076 50.3892444,45.7376471 50.3892444,40 C50.3892444,34.262521 45.738152,29.6110924 40.000505,29.6110924 L40.0000008,29.6110924 Z M40.0000008,26.9220168 C32.7773117,26.9220168 26.9220176,32.7771429 26.9220176,40 C26.9220176,47.2228571 32.7773117,53.0779832 40.0000008,53.0779832 C47.2228579,53.0779832 53.078152,47.2228571 53.078152,40 C53.0778159,32.7773109 47.2226898,26.9220168 40.0000008,26.9220168 L40.0000008,26.9220168 Z M44.5512613,35.3810084 L38.1647066,41.767563 L35.4468915,39.0497479 C34.9363033,38.5105882 34.0853789,38.487395 33.5462192,38.9979832 C33.0070596,39.5085714 32.9838663,40.3596639 33.4944545,40.8988235 C33.5112613,40.9164706 33.5285722,40.9337815 33.5462192,40.9505882 L37.2146226,44.6191597 C37.7396646,45.1440336 38.5907571,45.1440336 39.1157991,44.6191597 L46.4539503,37.2821849 C46.9697486,36.7480672 46.9549587,35.8968067 46.420673,35.3810084 C45.8998327,34.8776471 45.0737823,34.8776471 44.5526058,35.3810084 L44.5512613,35.3810084 Z" id="Fill-1" fill="#646A75"></path>
                            <path d="M25.9361352,2.88487395 L15.3445386,0.802016807 C14.6164713,0.659831933 13.9110932,1.13495798 13.7689083,1.86302521 C13.6268915,2.59109244 14.1018495,3.29647059 14.8299167,3.43865546 L21.2078999,4.68521008 C8.1536142,11.6309244 -0.00285639248,25.2129412 0,40 C0,62.089916 17.9134461,80 40,80 C40.7425218,80 41.3445386,79.3979832 41.3445386,78.6554622 C41.3445386,77.9129412 40.7425218,77.3109244 40,77.3109244 C19.398152,77.3109244 2.68907638,60.605042 2.68907638,40 C2.6838663,25.9941176 10.5247066,13.1655462 22.9915974,6.78268908 L20.7675638,12.277479 C20.4890764,12.9648739 20.820673,13.7478992 21.508068,14.0263866 C22.1954629,14.3048739 22.9784881,13.9732773 23.2569755,13.2858824 C24.3677318,10.5426891 25.8608411,7.33344538 26.7757991,4.58857143 C27.0142865,3.88621849 26.6383201,3.12352941 25.9361352,2.88487395 L25.9361352,2.88487395 Z" id="Path" fill="#46C0C0"></path>
                            <path d="M54.0638663,77.1151261 C53.3615134,76.8766387 52.9853789,76.1141176 53.2235302,75.4115966 C54.1384881,72.6667227 55.6315974,69.457479 56.7421856,66.7142857 C57.020673,66.0267227 57.8036982,65.6952941 58.4912613,65.9737815 C59.1786562,66.2521008 59.5102529,67.0351261 59.2317655,67.7226891 L57.0084041,73.2173109 C69.4752949,66.8342857 77.3159671,54.0058824 77.3109251,40 C77.3109251,19.394958 60.6018495,2.68907563 40.0000008,2.68907563 C39.2574797,2.68907563 38.6554629,2.08705882 38.6554629,1.34453782 C38.6554629,0.602016807 39.2574797,0 40.0000008,0 C62.0865554,0 80.0000017,17.910084 80.0000017,40 C80.003194,54.7868908 71.8468915,68.3689076 58.79311,75.3147899 L65.1709251,76.5613445 C65.8991604,76.7035294 66.3741184,77.4089076 66.2319335,78.1369748 C66.0899167,78.865042 65.3843705,79.34 64.6563033,79.1978151 L54.0638663,77.1151261 Z" id="Path" fill="#46C0C0"></path>
                        </g>
                    </g>
                </g>
            </g>
        </g>
    </g>
</svg>