<?xml version="1.0" encoding="UTF-8"?>
<svg width="104px" height="116px" viewBox="0 0 104 116" version="1.1" xmlns="http://www.w3.org/2000/svg" xmlns:xlink="http://www.w3.org/1999/xlink">
    <title>Group 37</title>
    <g id="Page-1" stroke="none" stroke-width="1" fill="none" fill-rule="evenodd">
        <g id="main-[1920]" transform="translate(-1190.000000, -984.000000)">
            <g id="Group-28" transform="translate(242.000000, 914.000000)">
                <g id="Group-32-Copy-3" transform="translate(865.000000, 70.000000)">
                    <g id="Group-37" transform="translate(83.000000, 0.000000)">
                        <text id="4" font-family="GothamPro-Bold, Gotham Pro" font-size="130" font-weight="bold" fill="#EAECEE">
                            <tspan x="7.215" y="95">4</tspan>
                        </text>
                        <g id="Group-3" transform="translate(0.000000, 12.000000)">
                            <path d="M71.7102852,43.3083521 L87.1073066,43.3083521 L76.6316478,31.879684 L72.66149,31.879684 L71.7102852,43.3083521 Z M70.0753949,46.3158013 C69.6558452,46.3158013 69.2523106,46.1389589 68.9676484,45.8303869 C68.685693,45.5220405 68.5424597,45.1045209 68.576971,44.6867757 L69.7799056,30.2511095 C69.8457704,29.4652434 70.4897566,28.8722347 71.2783295,28.8722347 L77.2934536,28.8722347 C77.7143566,28.8722347 78.1187935,29.0497539 78.402779,29.3594537 L91.6355106,43.7964733 C92.0376918,44.2356471 92.1428048,44.8730919 91.9030299,45.418732 C91.6634806,45.9634699 91.1230284,46.3158013 90.5264108,46.3158013 L70.0753949,46.3158013 Z M2.70677201,80 C1.87759751,80 1.20293459,79.3255626 1.20293459,78.4963882 C1.20293459,77.6672137 1.87759751,76.9925507 2.70677201,76.9925507 L8.72189609,76.9925507 C9.55084502,76.9925507 10.2255079,77.6672137 10.2255079,78.4963882 C10.2255079,79.3255626 9.55084502,80 8.72189609,80 L2.70677201,80 Z M49.6241534,80 C48.7949789,80 48.120316,79.3255626 48.120316,78.4963882 C48.120316,77.6672137 48.7949789,76.9925507 49.6241534,76.9925507 L60.4512414,76.9925507 C61.2801904,76.9925507 61.9550789,77.6672137 61.9550789,78.4963882 C61.9550789,79.3255626 61.2801904,80 60.4512414,80 L49.6241534,80 Z M80.6184974,52.9322799 C84.2482787,52.9322799 87.4382095,54.3513052 89.6009203,56.927701 C91.2558858,58.9009378 92.159271,61.373574 92.2131809,64.0783159 L92.2307749,64.9625281 L95.8183756,64.9625281 C97.5152961,64.9625281 98.92981,63.6896686 99.108457,62.0017707 L100.614776,47.6962551 C100.852972,45.4207621 100.115602,43.1373743 98.5919146,41.4309801 L83.8542178,24.9623026 C82.315869,23.242149 80.1098498,22.2555306 77.8021011,22.2555306 L63.2683144,22.2555306 L58.5217641,64.9625281 L65.2638821,64.9625281 L65.4644088,64.3350081 C67.5427585,57.834244 74.0577332,52.9322799 80.6184974,52.9322799 L80.6184974,52.9322799 Z M28.889152,55.9399548 C22.9509454,55.9399548 17.2660475,60.7794376 16.2171733,66.7282457 C15.7225108,69.5297548 16.3437149,72.1379551 17.9661992,74.0719437 C19.5480819,75.9554059 21.9198908,76.9925507 24.644708,76.9925507 C30.5835913,76.9925507 36.2678125,72.1528424 37.3157844,66.2042598 C37.8102214,63.4032019 37.1894684,60.7952271 35.5678864,58.8610129 C33.9857782,56.9770996 31.6139692,55.9399548 28.889152,55.9399548 L28.889152,55.9399548 Z M80.6184974,55.9399548 C74.6802908,55.9399548 68.9956184,60.7794376 67.9462931,66.7280202 C67.4518561,69.5297548 68.0730603,72.1379551 69.6955445,74.0719437 C71.2776528,75.9554059 73.6494617,76.9925507 76.3742789,76.9925507 C82.3131622,76.9925507 87.9973835,72.1528424 89.0451298,66.2042598 C89.5395668,63.4032019 88.9188138,60.7952271 87.2972318,58.8610129 C85.7151235,56.9770996 83.3435401,55.9399548 80.6184974,55.9399548 L80.6184974,55.9399548 Z M76.3742789,80 C72.7442721,80 69.5543413,78.5812003 67.391856,76.0048045 C65.7368905,74.0313422 64.8332798,71.5587059 64.7793699,68.8541896 L64.7617759,67.9699774 L39.9993233,67.9699774 L39.798571,68.5974974 C37.7206724,75.0980359 31.2059233,80 24.644708,80 C21.0149267,80 17.8247703,78.5812003 15.6625106,76.0048045 C14.0075451,74.0315677 13.1039344,71.5587059 13.0500245,68.8541896 L13.0324305,67.9699774 L1.50383741,67.9699774 C0.674662922,67.9699774 0,67.2953145 0,66.46614 C0,65.6369655 0.674662922,64.9625281 1.50383741,64.9625281 L13.5345367,64.9625281 L13.735289,64.3350081 C15.8131876,57.834244 22.3279367,52.9322799 28.889152,52.9322799 C32.5189333,52.9322799 35.7088641,54.3513052 37.8713494,56.927701 C39.5263149,58.9009378 40.4299256,61.3737996 40.4838355,64.0783159 L40.5014295,64.9625281 L55.4964953,64.9625281 L61.9724473,6.68121557 C62.0775603,5.73519875 61.7854545,4.82211433 61.1493631,4.11000773 C60.5125949,3.39857782 59.6371798,3.00744926 58.6841705,3.00744926 L8.72189609,3.00744926 C7.8927216,3.00744926 7.21805868,2.33278634 7.21805868,1.50361185 C7.21805868,0.674437358 7.8927216,0 8.72189609,0 L58.6841705,0 C60.4767302,0 62.1916958,0.766467606 63.3894425,2.10338741 C64.5867379,3.43985609 65.1598969,5.22925795 64.962077,7.01256957 L63.6016985,19.2480813 L77.8021011,19.2480813 C80.9629341,19.2480813 83.9852706,20.5996628 86.0947483,22.9559078 L100.831543,39.4252621 C102.922975,41.7645898 103.933955,44.8938438 103.605759,48.0102406 L102.099666,62.3153051 C101.760417,65.5390706 99.0601862,67.9699774 95.8183756,67.9699774 L91.7286687,67.9699774 L91.5279164,68.5974974 C89.4500178,75.0980359 82.9352687,80 76.3742789,80 L76.3742789,80 Z" id="Fill-1" fill="#646A75"></path>
                            <path d="M13.53386,17.4435666 C12.7046855,17.4435666 12.0300226,16.7689037 12.0300226,15.9397292 C12.0300226,15.1105547 12.7046855,14.4361174 13.53386,14.4361174 L18.345824,14.4361174 C19.1749984,14.4361174 19.8496614,15.1105547 19.8496614,15.9397292 C19.8496614,16.7689037 19.1749984,17.4435666 18.345824,17.4435666 L13.53386,17.4435666 Z" id="Path" fill="#46C0C0"></path>
                            <path d="M27.9699774,17.4435666 C27.1408029,17.4435666 26.46614,16.7689037 26.46614,15.9397292 C26.46614,15.1105547 27.1408029,14.4361174 27.9699774,14.4361174 L44.8121895,14.4361174 C45.6411384,14.4361174 46.3158013,15.1105547 46.3158013,15.9397292 C46.3158013,16.7689037 45.6411384,17.4435666 44.8121895,17.4435666 L27.9699774,17.4435666 Z" id="Path" fill="#46C0C0"></path>
                            <path d="M8.72189609,31.879684 C7.8927216,31.879684 7.21805868,31.2050211 7.21805868,30.3758466 C7.21805868,29.5466721 7.8927216,28.8722347 8.72189609,28.8722347 L25.5638826,28.8722347 C26.3930571,28.8722347 27.0677201,29.5466721 27.0677201,30.3758466 C27.0677201,31.2050211 26.3930571,31.879684 25.5638826,31.879684 L8.72189609,31.879684 Z" id="Path" fill="#46C0C0"></path>
                            <path d="M35.1880361,31.879684 C34.3588616,31.879684 33.6841987,31.2050211 33.6841987,30.3758466 C33.6841987,29.5466721 34.3588616,28.8722347 35.1880361,28.8722347 L40,28.8722347 C40.8291745,28.8722347 41.5038374,29.5466721 41.5038374,30.3758466 C41.5038374,31.2050211 40.8291745,31.879684 40,31.879684 L35.1880361,31.879684 Z" id="Path" fill="#46C0C0"></path>
                            <path d="M3.9097066,46.3158013 C3.08053211,46.3158013 2.40609475,45.6411384 2.40609475,44.8119639 C2.40609475,43.9827894 3.08053211,43.3083521 3.9097066,43.3083521 L35.1880361,43.3083521 C36.0172106,43.3083521 36.6918735,43.9827894 36.6918735,44.8119639 C36.6918735,45.6411384 36.0172106,46.3158013 35.1880361,46.3158013 L3.9097066,46.3158013 Z" id="Path" fill="#46C0C0"></path>
                        </g>
                    </g>
                </g>
            </g>
        </g>
    </g>
</svg>