<?xml version="1.0" encoding="UTF-8"?>
<svg width="84px" height="116px" viewBox="0 0 84 116" version="1.1" xmlns="http://www.w3.org/2000/svg" xmlns:xlink="http://www.w3.org/1999/xlink">
    <title>Group 38</title>
    <g id="Page-1" stroke="none" stroke-width="1" fill="none" fill-rule="evenodd">
        <g id="main-[1920]" transform="translate(-1488.000000, -984.000000)">
            <g id="Group-28" transform="translate(242.000000, 914.000000)">
                <g id="Group-32-Copy-4" transform="translate(1153.000000, 70.000000)">
                    <g id="Group-38" transform="translate(93.000000, 0.000000)">
                        <text id="5" font-family="GothamPro-Bold, Gotham Pro" font-size="130" font-weight="bold" fill="#EAECEE">
                            <tspan x="0.05" y="95">5</tspan>
                        </text>
                        <g id="Group-9" transform="translate(0.000000, 12.000000)">
                            <path d="M62.4099215,63.3725775 C62.3710867,63.3725775 62.3330286,63.3698591 62.2949706,63.3661698 L62.2685629,63.3626746 C62.2353592,63.358597 62.2064273,63.3539368 62.1776895,63.3481116 L62.1460392,63.3413155 C62.1171073,63.3347136 62.0879812,63.3265583 62.0588551,63.3174321 L62.0332241,63.3096652 C61.9969136,63.297238 61.9606031,63.2834517 61.9250693,63.2671411 C61.8827393,63.2465586 61.8528366,63.2308305 61.8233221,63.2135491 L61.7996329,63.1985977 C61.7646816,63.1762677 61.743905,63.1624813 61.7237109,63.1479183 L61.6609927,63.1001515 L56.3241229,58.6654136 C56.0847064,58.4663853 55.9369401,58.1863866 55.9085907,57.8766792 C55.879853,57.567166 55.9738331,57.264643 56.1726672,57.0252266 C56.3948022,56.7584316 56.7219852,56.6050342 57.0695565,56.6050342 C57.3404291,56.6050342 57.6043114,56.7005678 57.8130484,56.8737709 L62.4089506,60.6929776 L71.426387,53.198253 C71.6347356,53.0250499 71.8988121,52.9297105 72.1696847,52.9297105 C72.5180327,52.9297105 72.8448274,53.0827195 73.0663798,53.3495145 C73.2654081,53.5891251 73.3593882,53.891648 73.3306505,54.2015496 C73.3023011,54.5110628 73.1545348,54.7912558 72.9151183,54.9900898 L63.1534134,63.1032583 C63.1534134,63.1032583 63.1070058,63.1391805 63.0932195,63.1492775 C63.0701128,63.1661706 63.0503071,63.1793745 63.030113,63.1921899 L62.9972976,63.2129665 C62.9291425,63.2531605 62.8572982,63.2861701 62.7839005,63.3108302 L62.7617646,63.3178205 C62.7361337,63.3259758 62.7033183,63.3347136 62.6703087,63.3422864 L62.6485612,63.3467524 C62.6130274,63.354131 62.5831246,63.3589853 62.5532219,63.3624805 L62.5268142,63.3661698 C62.4870086,63.3698591 62.4489505,63.3725775 62.4106982,63.3725775 L62.4099215,63.3725775 Z" id="Fill-1" fill="#46C0C0"></path>
                            <g id="Group-5" fill="#646A75">
                                <path d="M3.49474201,19.8059329 L14.201103,25.9870709 L44.1580595,8.69180669 L33.4524752,2.51125116 L3.49474201,19.8059329 Z M16.5311899,27.3323078 L20.415639,29.5750164 L50.3727896,12.2793638 L46.4881464,10.0368494 L16.5311899,27.3323078 Z M22.7457259,30.9200591 L33.4524752,37.1015855 L63.4100142,19.8059329 L52.7028765,13.6246007 L22.7457259,30.9200591 Z M15.3661465,37.4217783 L19.2496246,39.6642927 L19.2496246,31.5922892 L15.3661465,29.350163 L15.3661465,37.4217783 Z M2.33008691,56.4152875 L32.2874318,73.7097751 L32.2874318,39.1194407 L21.5797115,32.937526 L21.579129,41.6904975 C21.5787407,41.7205944 21.5769931,41.7470021 21.5748572,41.7736039 L21.5731096,41.7972931 C21.5696145,41.8349629 21.5651485,41.8588462 21.5610708,41.8827296 L21.5534981,41.9270013 C21.5503913,41.9409818 21.5234011,42.0398163 21.5234011,42.0398163 L21.5059255,42.0862239 C21.4956342,42.1139908 21.4890323,42.1320489 21.4814595,42.1499129 L21.4622363,42.1885535 C21.4515568,42.2110777 21.4416539,42.231466 21.430586,42.2512717 L21.4237899,42.2633105 L21.4113628,42.2825337 C21.3917512,42.3147666 21.3719455,42.344281 21.3505863,42.3734071 L21.3216544,42.4122419 C21.2962176,42.4438922 21.2680624,42.4765135 21.2375771,42.5069988 L21.2014608,42.5390375 C21.1801016,42.5588432 21.1583542,42.5778722 21.13583,42.5959304 C21.1214611,42.6071925 21.1065097,42.6182604 21.0913642,42.6291341 C21.0661216,42.6469981 21.0408789,42.6633088 21.0150538,42.6788427 L20.9921413,42.6930174 C20.939326,42.7233085 20.8989378,42.7425317 20.8573846,42.7598132 L20.8373847,42.7668034 C20.80088,42.7809781 20.7637928,42.7934053 20.7259289,42.8036965 L20.7004921,42.8104926 C20.6573855,42.820978 20.6218517,42.8277741 20.5855411,42.8332109 L20.5614636,42.8369002 C20.513891,42.8431138 20.4719494,42.8468031 20.4296195,42.8473856 L20.4074837,42.8471914 C20.3651537,42.8469973 20.3212704,42.8436963 20.2777755,42.8386478 L20.2354456,42.8320459 C20.2059311,42.8273857 20.1735041,42.8213663 20.1414654,42.8135994 L20.1022423,42.8035023 C20.0622424,42.7922402 20.0257378,42.7800073 19.9902039,42.7660268 L19.9616604,42.7557355 C19.9249615,42.7403958 19.8830199,42.7192308 19.8420492,42.6961241 L19.8195251,42.6840854 L13.6185813,39.1031301 L13.588096,39.082936 C13.5694553,39.0712856 13.5527563,39.0611886 13.5366399,39.0499265 C13.517805,39.0369168 13.5003294,39.0233247 13.4830479,39.0095383 L13.4506208,38.9839074 C13.4290675,38.9658492 13.4102327,38.9481794 13.391592,38.9303154 L13.3673202,38.9066261 C13.3496504,38.888568 13.3313981,38.8679855 13.3133399,38.8470147 L13.2952817,38.8252673 C13.2778061,38.8035198 13.2618838,38.7821607 13.2465441,38.760219 L13.2273209,38.7318696 C13.2139229,38.7114814 13.200719,38.6897339 13.1882919,38.6679864 L13.168292,38.6310934 C13.1587775,38.6126468 13.1492629,38.5926469 13.1401368,38.5724528 C13.1329523,38.5567248 13.1263504,38.541385 13.1199427,38.5258511 C13.1133408,38.5087638 13.1063505,38.4901231 13.1001369,38.4712882 C13.093535,38.4518708 13.087904,38.4347835 13.0826613,38.4173079 C13.0778069,38.4000264 13.0731468,38.3808032 13.0684866,38.3613858 C13.0646031,38.3444927 13.0605255,38.3274054 13.0572245,38.3099297 C13.0529527,38.286823 13.0500401,38.2660464 13.0473216,38.2450756 L13.0416906,38.1973088 C13.0391663,38.1714837 13.0385838,38.1470178 13.0380013,38.1221635 L13.0360596,38.0864355 L13.0360596,28.0049262 L2.33008691,21.8239823 L2.33008691,56.4152875 Z M33.4524752,76.8932563 C33.4060676,76.8932563 33.3606309,76.889567 33.3157768,76.8843243 L33.2740294,76.8777224 C33.2408256,76.8726739 33.2085928,76.8662661 33.1769424,76.8586933 C33.164127,76.8557807 33.150729,76.8524798 33.1371368,76.8485963 C33.098302,76.8375284 33.0631565,76.8256838 33.0287877,76.8122858 L32.9998558,76.8016062 C32.9616036,76.7856839 32.920827,76.7651015 32.8814097,76.7425773 L32.8575264,76.729956 L0.582521727,58.096251 C0.222911647,57.8900383 0,57.5036323 0,57.0875176 L0.000776695636,19.7938941 C0.00116504345,19.7498166 0.00388347818,19.702244 0.0100970433,19.6548656 C0.0182523474,19.6018561 0.0266018255,19.5608854 0.0368930427,19.5203031 L0.046990086,19.4843809 C0.0572813031,19.4488471 0.0679608681,19.4187501 0.0796113027,19.3886532 L0.0965044327,19.3443815 C0.111067476,19.3107894 0.127960606,19.2770032 0.146212953,19.2436052 L0.168542953,19.205353 C0.188737039,19.1715667 0.209319474,19.1403047 0.231455299,19.1104019 L0.260193038,19.0748681 C0.280969646,19.0492372 0.302328776,19.0243829 0.324658776,19.0008879 L0.351648949,18.9733152 C0.383881818,18.941859 0.416308861,18.9125387 0.450289295,18.8861311 L0.469318338,18.870403 C0.49378425,18.8521506 0.535143293,18.8253546 0.577667379,18.8005004 L0.599609031,18.7869082 L32.8699535,0.156504171 C33.0472343,0.0541745206 33.2485926,0 33.452281,0 C33.6561636,0 33.857522,0.0541745206 34.0349969,0.156504171 L66.3111666,18.7909859 C66.3206811,18.7973936 66.3301956,18.803413 66.3400985,18.809044 C66.3731081,18.8288498 66.4101953,18.8531215 66.4457291,18.8801117 L66.4700009,18.9008883 C66.4983502,18.9238008 66.5241754,18.946325 66.5488355,18.9702084 C66.5608742,18.9818588 66.5723305,18.9937034 66.5837868,19.0057422 C66.6035925,19.0269072 66.6237866,19.0500139 66.6430098,19.0738972 L66.6746602,19.1129262 C66.6989319,19.1455474 66.7232036,19.1810812 66.7453395,19.2189452 C66.7734947,19.2688479 66.7921354,19.3072943 66.8088343,19.3461291 L66.8251449,19.3882648 C66.836407,19.4175851 66.8470866,19.4482645 66.8560186,19.4793324 L66.8672807,19.5189438 C66.8773777,19.559332 66.885533,19.5979726 66.8911641,19.6368074 L66.8960184,19.6651568 C66.9006786,19.7020498 66.9032029,19.7480691 66.9035912,19.7938941 L66.9045621,19.8195251 L66.9045621,30.4903522 C66.9045621,31.1326795 66.3820401,31.6553957 65.7395186,31.6553957 C65.0969971,31.6553957 64.5744752,31.1326795 64.5744752,30.4903522 L64.5744752,21.8239823 L34.6175187,39.1194407 L34.6175187,73.7095809 L44.3726217,68.0771783 C44.5500966,67.9742661 44.7510666,67.9200916 44.9537842,67.9200916 C45.3685397,67.9200916 45.7559166,68.14378 45.9644594,68.5039726 C46.2848463,69.0596983 46.0933909,69.7738699 45.5376651,70.0946452 L34.0348028,76.7353929 C33.9899486,76.7616064 33.9485895,76.7827713 33.9080072,76.8000528 L33.8922791,76.8064606 C33.8518909,76.8231595 33.8099494,76.8365575 33.7674253,76.8485963 L33.7377167,76.8563632 C33.6961635,76.8664603 33.6635422,76.872868 33.6303385,76.8779166 L33.590727,76.8841301 C33.5450962,76.8893728 33.4992711,76.8932563 33.4524752,76.8932563 L33.4524752,76.8932563 Z" id="Fill-3"></path>
                            </g>
                            <g id="Group-8" transform="translate(46.134303, 36.304657)" fill="#46C0C0">
                                <path d="M18.2566193,2.79105577 C13.4080968,6.3615256 8.13044992,9.33801746 2.56989168,11.6382016 L2.33008691,11.7372303 L2.33008691,17.1649736 C2.33008691,22.283592 3.85241035,27.2736673 6.73298029,31.5959785 C9.60908423,35.9112994 13.6214939,39.2365276 18.3368131,41.2124413 L18.4869095,41.2751595 L18.6368118,41.2124413 C23.3511601,39.2373043 27.3631814,35.9122703 30.2392854,31.596561 C33.1196611,27.2740556 34.6421787,22.2837861 34.6421787,17.1649736 L34.6421787,11.7372303 L34.4021798,11.6382016 C28.8423983,9.33801746 23.5651398,6.36133143 18.7170056,2.79105577 L18.4869095,2.62134777 L18.2566193,2.79105577 Z M18.4869095,43.6953431 C18.3414733,43.6953431 18.1981729,43.6687413 18.0606978,43.6157318 C7.25880324,39.394391 0,28.7645345 0,17.1649736 L0,10.9514085 C0,10.4710222 0.288348255,10.0461697 0.734948245,9.86927727 C6.82404786,7.44928784 12.5595568,4.20891365 17.7822524,0.237668865 C17.9863292,0.0821355635 18.2302116,0 18.4876862,0 C18.7451608,0 18.9888491,0.0821355635 19.1929259,0.237474691 C24.4103788,4.20833113 30.1454994,7.44870532 36.2384825,9.8690831 C36.6841116,10.0461697 36.9722657,10.4712164 36.9722657,10.9514085 L36.9722657,17.1649736 C36.9722657,28.7629811 29.7132682,39.3930318 18.9092378,43.6165085 C18.776617,43.6679646 18.6302099,43.6953431 18.4869095,43.6953431 L18.4869095,43.6953431 Z" id="Fill-6"></path>
                            </g>
                        </g>
                    </g>
                </g>
            </g>
        </g>
    </g>
</svg>